<?xml version="1.0" encoding="utf-8"?>
<!-- Generator: Adobe Illustrator 19.1.0, SVG Export Plug-In . SVG Version: 6.00 Build 0)  -->
<!DOCTYPE svg PUBLIC "-//W3C//DTD SVG 1.1//EN" "http://www.w3.org/Graphics/SVG/1.1/DTD/svg11.dtd">
<svg version="1.1" id="Layer_1" xmlns="http://www.w3.org/2000/svg" xmlns:xlink="http://www.w3.org/1999/xlink" x="0px" y="0px"
	 viewBox="0 0 28 28" enable-background="new 0 0 28 28" xml:space="preserve">
<g>
	<defs>
		<rect id="SVGID_1_" x="7.6" y="0.8" width="12.9" height="26.4"/>
	</defs>
	<clipPath id="SVGID_2_">
		<use xlink:href="#SVGID_1_"  overflow="visible"/>
	</clipPath>
	<g clip-path="url(#SVGID_2_)">
		<path fill="#F0CA78" d="M16.5,26.8h-5.4V14.3H8.4V9.8h2.7V5.2c0-1.6,1.5-4,4-4h5.4v5H17c0,0-0.5,0-0.5,0.6v3h3.9l-0.2,4.5l-3.8,0
			V26.8z M12.1,25.8h3.4V13.3l3.8,0l0.1-2.5h-3.9v-4c0-1,0.8-1.6,1.5-1.6h2.4v-3h-4.4c-1.7,0-3,1.8-3,3v5.6H9.4v2.5h2.7V25.8z"/>
	</g>
</g>
<g display="none">
	<defs>
		<rect id="SVGID_3_" x="4" y="4.4" width="20.2" height="20.2"/>
	</defs>
	<clipPath id="SVGID_4_" display="inline">
		<use xlink:href="#SVGID_3_"  overflow="visible"/>
	</clipPath>
	<path display="inline" clip-path="url(#SVGID_4_)" fill="none" stroke="#7ACBBC" stroke-width="0.8631" stroke-miterlimit="10" d="
		M6.3,5.6v3.7 M7.8,5.2v4.1 M9.2,5.2v4.1 M17.2,11.5h6.2 M4.7,11.5h6.1 M20,23.8H8.1c-1.9,0-3.4-1.5-3.4-3.4V8.6
		c0-1.9,1.5-3.4,3.4-3.4H20c1.9,0,3.4,1.5,3.4,3.4v11.9C23.4,22.3,21.9,23.8,20,23.8z M21.1,9.9h-2.2c-0.3,0-0.5-0.2-0.5-0.5V7.2
		c0-0.3,0.2-0.5,0.5-0.5h2.2c0.3,0,0.5,0.2,0.5,0.5v2.2C21.6,9.7,21.4,9.9,21.1,9.9z M18.4,14.5c0,2.4-1.9,4.3-4.3,4.3
		s-4.3-1.9-4.3-4.3c0-2.4,1.9-4.3,4.3-4.3S18.4,12.1,18.4,14.5z M16.7,14.5c0,1.4-1.2,2.6-2.6,2.6c-1.4,0-2.6-1.2-2.6-2.6
		c0-1.4,1.2-2.6,2.6-2.6C15.5,11.9,16.7,13.1,16.7,14.5z"/>
</g>
<g display="none">
	<defs>
		<rect id="SVGID_5_" x="0" y="3.4" width="28" height="21.2"/>
	</defs>
	<clipPath id="SVGID_6_" display="inline">
		<use xlink:href="#SVGID_5_"  overflow="visible"/>
	</clipPath>
	<path display="inline" clip-path="url(#SVGID_6_)" fill="none" stroke="#7ACBBC" stroke-miterlimit="10" d="M14.9,10.7
		c0,0-5.5-0.1-9.6-5.2C5,6.2,3.5,9.3,6.7,12c-0.5-0.1-1.4-0.1-2-0.5c0.1,0.6-0.1,3.7,3.7,4.8c-0.5,0.1-1.3,0.3-2.1,0.1
		c0.2,0.5,0.9,3.1,4.3,3.4c-0.6,0.4-2.9,2.4-6.9,1.9c1.1,0.6,4.1,2.9,9.8,1.9c5.7-1,9.4-6,10.3-11.1c0.3-1.6,0.2-2.3,0.2-3
		c0.4-0.3,1.9-1.7,2.3-2.5c-0.7,0.3-1.7,0.6-2.6,0.7c0.5-0.3,1.5-1.1,2-2.6c-0.7,0.4-2.2,1.1-2.9,1.1c-0.4-0.4-1.4-1.5-3.6-1.5
		C16.9,4.7,14.1,7.3,14.9,10.7z"/>
</g>
</svg>
