<?xml version="1.0" encoding="utf-8"?>
<!-- Generator: Adobe Illustrator 19.1.0, SVG Export Plug-In . SVG Version: 6.00 Build 0)  -->
<!DOCTYPE svg PUBLIC "-//W3C//DTD SVG 1.1//EN" "http://www.w3.org/Graphics/SVG/1.1/DTD/svg11.dtd">
<svg version="1.1" id="Layer_1" xmlns="http://www.w3.org/2000/svg" xmlns:xlink="http://www.w3.org/1999/xlink" x="0px" y="0px"
	 viewBox="0 0 28 28" enable-background="new 0 0 28 28" xml:space="preserve">
<g display="none">
	<defs>
		<rect id="SVGID_1_" x="-139.8" y="-237.9" width="28.1" height="57.6"/>
	</defs>
	<clipPath id="SVGID_2_" display="inline">
		<use xlink:href="#SVGID_1_"  overflow="visible"/>
	</clipPath>
	<path display="inline" clip-path="url(#SVGID_2_)" fill="none" stroke="#7ACBBC" stroke-width="2" stroke-miterlimit="10" d="
		M-122.3-209.6v27.2h-9.6v-27.2h-5.8v-7.6h5.9v-11.2c0-3.1,3.1-7.5,7.5-7.5h10.6v8.6h-6.4c-0.8,0-2.2,0.6-2.2,2.3v7.7h8.5l-0.3,7.6
		L-122.3-209.6z"/>
</g>
<g display="none">
	<defs>
		<rect id="SVGID_3_" x="4" y="4.4" width="20.2" height="20.2"/>
	</defs>
	<clipPath id="SVGID_4_" display="inline">
		<use xlink:href="#SVGID_3_"  overflow="visible"/>
	</clipPath>
	<path display="inline" clip-path="url(#SVGID_4_)" fill="none" stroke="#7ACBBC" stroke-width="0.8631" stroke-miterlimit="10" d="
		M6.3,5.6v3.7 M7.8,5.2v4.1 M9.2,5.2v4.1 M17.2,11.5h6.2 M4.7,11.5h6.1 M20,23.8H8.1c-1.9,0-3.4-1.5-3.4-3.4V8.6
		c0-1.9,1.5-3.4,3.4-3.4H20c1.9,0,3.4,1.5,3.4,3.4v11.9C23.4,22.3,21.9,23.8,20,23.8z M21.1,9.9h-2.2c-0.3,0-0.5-0.2-0.5-0.5V7.2
		c0-0.3,0.2-0.5,0.5-0.5h2.2c0.3,0,0.5,0.2,0.5,0.5v2.2C21.6,9.7,21.4,9.9,21.1,9.9z M18.4,14.5c0,2.4-1.9,4.3-4.3,4.3
		s-4.3-1.9-4.3-4.3c0-2.4,1.9-4.3,4.3-4.3S18.4,12.1,18.4,14.5z M16.7,14.5c0,1.4-1.2,2.6-2.6,2.6c-1.4,0-2.6-1.2-2.6-2.6
		c0-1.4,1.2-2.6,2.6-2.6C15.5,11.9,16.7,13.1,16.7,14.5z"/>
</g>
<g>
	<defs>
		<rect id="SVGID_5_" x="0" y="3.4" width="28" height="21.2"/>
	</defs>
	<clipPath id="SVGID_6_">
		<use xlink:href="#SVGID_5_"  overflow="visible"/>
	</clipPath>
	<path clip-path="url(#SVGID_6_)" fill="none" stroke="#7ACBBC" stroke-miterlimit="10" d="M14.9,10.7c0,0-5.5-0.1-9.6-5.2
		C5,6.2,3.5,9.3,6.7,12c-0.5-0.1-1.4-0.1-2-0.5c0.1,0.6-0.1,3.7,3.7,4.8c-0.5,0.1-1.3,0.3-2.1,0.1c0.2,0.5,0.9,3.1,4.3,3.4
		c-0.6,0.4-2.9,2.4-6.9,1.9c1.1,0.6,4.1,2.9,9.8,1.9c5.7-1,9.4-6,10.3-11.1c0.3-1.6,0.2-2.3,0.2-3c0.4-0.3,1.9-1.7,2.3-2.5
		c-0.7,0.3-1.7,0.6-2.6,0.7c0.5-0.3,1.5-1.1,2-2.6c-0.7,0.4-2.2,1.1-2.9,1.1c-0.4-0.4-1.4-1.5-3.6-1.5C16.9,4.7,14.1,7.3,14.9,10.7z
		"/>
</g>
</svg>
